<svg width="50" height="50" viewBox="0 0 50 50" fill="none" xmlns="http://www.w3.org/2000/svg">
<path d="M50 1.5625C50 0.699555 49.3004 6.11571e-08 48.4375 1.36598e-07L39.0625 9.56187e-07C38.1996 1.03163e-06 37.5 0.699556 37.5 1.5625C37.5 2.42545 38.1996 3.125 39.0625 3.125L46.875 3.125L46.875 10.9375C46.875 11.8004 47.5746 12.5 48.4375 12.5C49.3004 12.5 50 11.8004 50 10.9375L50 1.5625Z" fill="white"/>
<path d="M12.5 1.5625C12.5 0.699558 11.8004 3.33951e-06 10.9375 3.41495e-06L1.5625 4.23454e-06C0.699551 4.30998e-06 -3.75354e-06 0.699559 -3.6781e-06 1.5625L-2.85851e-06 10.9375C-2.78307e-06 11.8004 0.699552 12.5 1.5625 12.5C2.42544 12.5 3.125 11.8004 3.125 10.9375L3.125 3.125L10.9375 3.125C11.8004 3.125 12.5 2.42545 12.5 1.5625Z" fill="white"/>
<path d="M48.4375 37.5C47.5746 37.5 46.875 38.1996 46.875 39.0625L46.875 46.875L39.0625 46.875C38.1996 46.875 37.5 47.5746 37.5 48.4375C37.5 49.3004 38.1996 50 39.0625 50L48.4375 50C49.3004 50 50 49.3004 50 48.4375L50 39.0625C50 38.1996 49.3004 37.5 48.4375 37.5Z" fill="white"/>
<path d="M1.5625 37.5C0.699554 37.5 -4.75186e-07 38.1996 -3.99745e-07 39.0625L4.19843e-07 48.4375C4.95285e-07 49.3004 0.699555 50 1.5625 50L10.9375 50C11.8004 50 12.5 49.3004 12.5 48.4375C12.5 47.5746 11.8004 46.875 10.9375 46.875L3.125 46.875L3.125 39.0625C3.125 38.1996 2.42545 37.5 1.5625 37.5Z" fill="white"/>
<path d="M37.5 12.5L34.375 12.5L34.375 15.625L37.5 15.625L37.5 12.5Z" fill="white"/>
<path d="M28.125 6.25L43.75 6.25L43.75 21.875L28.125 21.875L28.125 6.25ZM40.625 9.375L31.25 9.375L31.25 18.75L40.625 18.75L40.625 9.375Z" fill="white"/>
<path d="M34.375 34.375L37.5 34.375L37.5 37.5L34.375 37.5L34.375 34.375Z" fill="white"/>
<path d="M28.125 28.125L43.75 28.125L43.75 43.75L28.125 43.75L28.125 28.125ZM40.625 31.25L31.25 31.25L31.25 40.625L40.625 40.625L40.625 31.25Z" fill="white"/>
<path d="M15.625 12.5L12.5 12.5L12.5 15.625L15.625 15.625L15.625 12.5Z" fill="white"/>
<path d="M21.875 6.25L6.25 6.25L6.25 21.875L21.875 21.875L21.875 6.25ZM18.75 9.375L18.75 18.75L9.375 18.75L9.375 9.375L18.75 9.375Z" fill="white"/>
<path d="M25 25L25 31.25L21.875 31.25L21.875 34.375L25 34.375L25 37.5L18.75 37.5L18.75 31.25L15.625 31.25L15.625 37.5L12.5 37.5L12.5 34.375L6.25 34.375L6.25 31.25L15.625 31.25L15.625 25L25 25ZM18.75 31.25L21.875 31.25L21.875 28.125L18.75 28.125L18.75 31.25Z" fill="white"/>
<path d="M6.25 37.5L9.375 37.5L9.375 40.625L15.625 40.625L15.625 43.75L6.25 43.75L6.25 37.5Z" fill="white"/>
<path d="M18.75 43.75L18.75 40.625L25 40.625L25 43.75L18.75 43.75Z" fill="white"/>
<path d="M12.5 28.125L6.25 28.125L6.25 25L12.5 25L12.5 28.125Z" fill="white"/>
</svg>
